<svg xmlns="http://www.w3.org/2000/svg" viewBox="0 0 400 140"><title>graphql-server-logo</title><path d="M84.574,12.494V23.086L41.7,48.5V88.929l-8.855,5.142V43.251Z" style="fill:#f25f3f"/><path d="M84.443,12.562l-8.9-5.245L23.971,37.812l8.9,5.54Z" style="fill:#ffaa5b"/><path d="M126.814,88.838l-8.8-5.171-42.671,24.84-33.6-19.67-8.93,5.256,33.63,20.069,8.9,5.54Z" style="fill:#ffaa5b"/><path d="M127.3,38.014l-9.131-5.09L66.6,63.419l8.9,5.54Z" style="fill:#ffaa5b"/><path d="M23.88,37.819l9.013,5.355V94.052l42.96,25.34v10.746L23.88,99.074Z" style="fill:#eb1919"/><path d="M109.492,48.74V88.759l9.024,5.14V50.674l-9.024-1.935" style="fill:#eb1919"/><path d="M75.558,130.146V119.554l42.875-25.66V53.864L75.558,79.318V68.774l51.731-30.786v61.4Z" style="fill:#f25f3f"/><path d="M66.778,63.332V73.968l8.827,5.293V68.731Z" style="fill:#eb1919"/><path d="M178.479,57.671a10.513,10.513,0,0,0-2.917-4.547,13.581,13.581,0,0,0-5.134-2.815,25.514,25.514,0,0,0-7.54-.966h-19.28a1,1,0,0,0-1,1v53.28a1,1,0,0,0,1,1h6.88a1,1,0,0,0,1-1V85.583h11.4a25.5,25.5,0,0,0,7.54-.966,13.572,13.572,0,0,0,5.135-2.815,10.517,10.517,0,0,0,2.916-4.548,18.917,18.917,0,0,0,.849-5.871V63.462A18.644,18.644,0,0,0,178.479,57.671Zm-8.031,13.741c0,2.306-.522,3.9-1.553,4.746-.75.613-2.442,1.345-6.247,1.345h-11.16V57.422h11.16c3.809,0,5.5.715,6.256,1.313,1.025.818,1.544,2.426,1.544,4.779Z"/><path d="M218.328,63.663h-6.641a1,1,0,0,0-.952.693l-9.841,30.617L191.2,64.361a1,1,0,0,0-.953-.7h-6.64a1,1,0,0,0-.952,1.308L195.3,103.932a1,1,0,0,0,.951.691h1.4l-4.983,14.434a1,1,0,0,0,.946,1.326h6.32a1,1,0,0,0,.944-.669l5.526-15.777,12.88-38.96a1,1,0,0,0-.949-1.314Z"/><path d="M246.149,96.943a1,1,0,0,0-.8-.128c-1.182.309-2.281.544-3.262.7a17.755,17.755,0,0,1-2.725.227c-2.047,0-2.441-.491-2.5-.591a5.442,5.442,0,0,1-.5-2.729V71.263h9.48a1,1,0,0,0,1-.9l.56-5.6a1,1,0,0,0-1-1.1h-10.04V54.1a1,1,0,0,0-1.142-.99l-6.719.96a1,1,0,0,0-.859.99v8.6h-5.88a1,1,0,0,0-1,1v5.6a1,1,0,0,0,1,1h5.88v24.28c0,3.548.913,6.119,2.714,7.643,1.751,1.484,4.431,2.237,7.966,2.237a23.639,23.639,0,0,0,4.43-.418,29.413,29.413,0,0,0,4.058-1.077,1,1,0,0,0,.658-1.112l-.88-5.2A1,1,0,0,0,246.149,96.943Z"/><path d="M277.446,62.863a21.335,21.335,0,0,0-3.821.376c-1.322.242-2.683.559-4.05.94s-2.7.82-4,1.307c-.756.284-1.481.579-2.168.883V47.783a1,1,0,0,0-1.142-.99l-6.719.96a1,1,0,0,0-.859.99v54.88a1,1,0,0,0,1,1h6.72a1,1,0,0,0,1-1V74.874c.842-.419,1.756-.821,2.726-1.2,1.182-.464,2.384-.887,3.57-1.256,1.17-.362,2.268-.65,3.265-.856,2.372-.486,3.858-.374,4.621.294a2.611,2.611,0,0,1,.618,2.007v29.76a1,1,0,0,0,1,1h6.719a1,1,0,0,0,1-1V73.783a13.42,13.42,0,0,0-2.061-7.815C283.418,63.908,280.922,62.863,277.446,62.863Z"/><path d="M328.075,72.471a12.884,12.884,0,0,0-3.036-5.029,14.737,14.737,0,0,0-5.274-3.352,24.154,24.154,0,0,0-15.2,0,14.735,14.735,0,0,0-5.274,3.353,12.822,12.822,0,0,0-3.035,5.028,19.246,19.246,0,0,0-.93,6.032v11.28a19.226,19.226,0,0,0,.93,6.031,13.141,13.141,0,0,0,3.028,5.061,14.028,14.028,0,0,0,5.292,3.364,24.92,24.92,0,0,0,15.18,0,14.036,14.036,0,0,0,5.292-3.364,13.186,13.186,0,0,0,3.028-5.061,19.305,19.305,0,0,0,.93-6.031V78.5A19.339,19.339,0,0,0,328.075,72.471Zm-7.79,17.552c0,5.158-2.58,7.56-8.12,7.56s-8.12-2.4-8.12-7.56V78.263c0-5.158,2.58-7.56,8.12-7.56s8.12,2.4,8.12,7.56Z"/><path d="M367.982,65.968c-1.446-2.06-3.942-3.105-7.418-3.105a23.158,23.158,0,0,0-3.973.374,43.591,43.591,0,0,0-4.259.983c-1.429.405-2.837.856-4.187,1.342-.893.322-1.737.659-2.519,1.007l-.4-2.094a1,1,0,0,0-.982-.812H338.8a1,1,0,0,0-1,1v38.96a1,1,0,0,0,1,1h6.72a1,1,0,0,0,1-1V74.794c.842-.419,1.756-.821,2.726-1.2,1.176-.461,2.372-.868,3.55-1.21s2.28-.614,3.286-.822c2.371-.486,3.858-.374,4.62.294a2.611,2.611,0,0,1,.618,2.007v29.76a1,1,0,0,0,1,1h6.72a1,1,0,0,0,1-1V73.783A13.42,13.42,0,0,0,367.982,65.968Z"/><path d="M151.281,34.512a22.418,22.418,0,0,1-3.028.208,8.865,8.865,0,0,1-2.77-.39,5.554,5.554,0,0,1-1.975-1.092,4.5,4.5,0,0,1-1.2-1.676,5.565,5.565,0,0,1-.4-2.146V22.188a5.623,5.623,0,0,1,.4-2.17,4.508,4.508,0,0,1,1.2-1.678,5.415,5.415,0,0,1,1.975-1.079,9.159,9.159,0,0,1,2.77-.377,25.623,25.623,0,0,1,2.964.169q1.456.169,2.574.378l-.469,3.4q-.572-.078-1.26-.155c-.459-.053-.919-.1-1.378-.144s-.9-.073-1.327-.091-.793-.026-1.1-.026a3.43,3.43,0,0,0-1.209.183,1.841,1.841,0,0,0-.754.494,1.7,1.7,0,0,0-.377.754,4.035,4.035,0,0,0-.1.935V28.74a4.16,4.16,0,0,0,.1.962,1.892,1.892,0,0,0,.377.78,1.828,1.828,0,0,0,.754.534,3.24,3.24,0,0,0,1.209.194q.6,0,1.079-.025t1.234-.13v-5.3h3.666v8.139A20.4,20.4,0,0,1,151.281,34.512Z" style="fill:#184ae8"/><path d="M162.787,25.854a8.9,8.9,0,0,0-1.56.884V34.46h-3.745V21.8H160.6l.259,1.223c.192-.122.43-.261.716-.417s.585-.3.9-.442.624-.264.935-.377a6.168,6.168,0,0,1,.858-.247l.312,3.536Q163.748,25.413,162.787,25.854Z" style="fill:#184ae8"/><path d="M173.628,34.46l-.183-.91a7.859,7.859,0,0,1-1.91.846,6.786,6.786,0,0,1-1.911.324,3.389,3.389,0,0,1-2.834-1.092,4.54,4.54,0,0,1-.858-2.886,3.536,3.536,0,0,1,1-2.873,4.25,4.25,0,0,1,2.769-.819h3.327v-.7q0-1.093-.48-1.417a3.288,3.288,0,0,0-1.73-.326,12.655,12.655,0,0,0-3.458.52l-.493-2.886a7.917,7.917,0,0,1,.975-.286q.558-.13,1.17-.221t1.26-.143q.651-.051,1.275-.052a10.767,10.767,0,0,1,2.5.247,3.465,3.465,0,0,1,1.611.819,3.223,3.223,0,0,1,.859,1.5,8.523,8.523,0,0,1,.259,2.274V34.46Zm-.6-4.939h-2.391a1.111,1.111,0,0,0-.859.286,1.281,1.281,0,0,0-.259.883,1.878,1.878,0,0,0,.247,1,1.053,1.053,0,0,0,.975.4,4.828,4.828,0,0,0,1.339-.169,5.647,5.647,0,0,0,.948-.351Z" style="fill:#184ae8"/><path d="M191.126,30.04a5.263,5.263,0,0,1-1.014,3.471,4.011,4.011,0,0,1-3.25,1.209,14.432,14.432,0,0,1-1.676-.1,13.18,13.18,0,0,1-1.548-.26v5.226L179.9,40.1V21.8h2.937l.39,1.015q.338-.208.793-.443a7.64,7.64,0,0,1,.975-.416,8.892,8.892,0,0,1,1.066-.3,5.078,5.078,0,0,1,1.066-.117,3.75,3.75,0,0,1,2.977,1.17,5.194,5.194,0,0,1,1.027,3.51Zm-7.488,1.118a9.969,9.969,0,0,0,1.144.221,8.949,8.949,0,0,0,1.248.091,1.23,1.23,0,0,0,1.053-.4,1.679,1.679,0,0,0,.3-1.027V26.218a1.659,1.659,0,0,0-.3-1.053,1.275,1.275,0,0,0-1.053-.377,3.067,3.067,0,0,0-1.313.313,4.607,4.607,0,0,0-1.079.675Z" style="fill:#184ae8"/><path d="M201.24,34.46V26.088a.8.8,0,0,0-.91-.91,2.32,2.32,0,0,0-.6.092q-.338.09-.715.22t-.741.3q-.365.169-.676.325V34.46h-3.744V16.624l3.692-.52v6.6a17.727,17.727,0,0,1,2.3-.845,8.012,8.012,0,0,1,2.223-.325,2.989,2.989,0,0,1,1.366.286,2.281,2.281,0,0,1,.9.82,3.837,3.837,0,0,1,.494,1.287,8.218,8.218,0,0,1,.156,1.663V34.46Z" style="fill:#184ae8"/><path d="M213.408,34.668a7.481,7.481,0,0,1-2.574-.637,5.628,5.628,0,0,1-1.73-1.221,4.421,4.421,0,0,1-.961-1.6,5.544,5.544,0,0,1-.3-1.794V22.188a5.36,5.36,0,0,1,.364-1.937,4.616,4.616,0,0,1,1.157-1.7,5.785,5.785,0,0,1,2.067-1.209,10.88,10.88,0,0,1,6.227,0,5.778,5.778,0,0,1,2.08,1.209,4.628,4.628,0,0,1,1.157,1.7,5.36,5.36,0,0,1,.364,1.937v7.228a5.67,5.67,0,0,1-.208,1.508,4.371,4.371,0,0,1-.676,1.4,5.144,5.144,0,0,1-1.2,1.17,5.976,5.976,0,0,1-1.768.832l1.378,3.225-3.536,1.481Zm3.952-12.142a2.024,2.024,0,0,0-.663-1.6,4.225,4.225,0,0,0-4.29,0,2.024,2.024,0,0,0-.663,1.6v6.552a2.023,2.023,0,0,0,.663,1.6,4.225,4.225,0,0,0,4.29,0,2.023,2.023,0,0,0,.663-1.6Z" style="fill:#184ae8"/><path d="M224.25,34.46V17.145h3.9V31h6.865V34.46Z" style="fill:#184ae8"/><path d="M233.974,28.74V25.62h6.708v3.12Z" style="fill:#184ae8"/><path d="M254.45,29.586a8.632,8.632,0,0,1-.26,2.254,3.334,3.334,0,0,1-.961,1.6,4.367,4.367,0,0,1-1.937.964,13.319,13.319,0,0,1-3.186.313,15.044,15.044,0,0,1-2.99-.3,11.628,11.628,0,0,1-2.6-.825l.65-3.033a23.565,23.565,0,0,0,2.418.6,13.654,13.654,0,0,0,2.573.235,7.717,7.717,0,0,0,1.223-.079,1.479,1.479,0,0,0,.727-.3,1.1,1.1,0,0,0,.352-.573,3.647,3.647,0,0,0,.091-.9,6.976,6.976,0,0,0-.052-.936.914.914,0,0,0-.338-.6,2.627,2.627,0,0,0-.871-.415c-.391-.121-.94-.261-1.651-.416a16.568,16.568,0,0,1-2.509-.714,3.684,3.684,0,0,1-1.456-.959A3.081,3.081,0,0,1,243,24.017a12.962,12.962,0,0,1-.169-2.309,8.068,8.068,0,0,1,.26-2.2,3.011,3.011,0,0,1,.935-1.491,4.267,4.267,0,0,1,1.833-.856,13.256,13.256,0,0,1,2.952-.273q1.143,0,2.469.13a24.923,24.923,0,0,1,2.783.438l-.39,3.254q-1.482-.259-2.562-.377a20.835,20.835,0,0,0-2.249-.117,7.156,7.156,0,0,0-1.065.065,1.4,1.4,0,0,0-.65.247.942.942,0,0,0-.326.495,2.855,2.855,0,0,0-.09.779,7.18,7.18,0,0,0,.051.975.881.881,0,0,0,.325.572,2.494,2.494,0,0,0,.845.39q.573.169,1.587.4a17.148,17.148,0,0,1,2.73.846A3.989,3.989,0,0,1,253.749,26a2.7,2.7,0,0,1,.6,1.446A18.39,18.39,0,0,1,254.45,29.586Z" style="fill:#184ae8"/><path d="M260.275,29.468v.339a1.8,1.8,0,0,0,.573,1.494,3.029,3.029,0,0,0,1.871.455q.468,0,1.014-.052c.365-.034.728-.082,1.092-.142s.715-.126,1.053-.2a7.649,7.649,0,0,0,.9-.234l.546,2.782a15.109,15.109,0,0,1-2.21.56,14.782,14.782,0,0,1-2.7.246,6.134,6.134,0,0,1-4.446-1.4,5.01,5.01,0,0,1-1.43-3.744V26.608a6.768,6.768,0,0,1,.274-1.937,4.04,4.04,0,0,1,.923-1.625,4.394,4.394,0,0,1,1.728-1.105,7.769,7.769,0,0,1,2.691-.4,6.953,6.953,0,0,1,2.626.429,3.98,3.98,0,0,1,1.625,1.157,4.263,4.263,0,0,1,.819,1.677,8.29,8.29,0,0,1,.234,1.989v2.678Zm3.64-3.535a1.51,1.51,0,0,0-1.768-1.613,1.91,1.91,0,0,0-1.469.455,1.681,1.681,0,0,0-.4,1.158v.883h3.64Z" style="fill:#184ae8"/><path d="M275.193,25.854a8.935,8.935,0,0,0-1.56.884V34.46H269.89V21.8h3.119l.261,1.223q.285-.183.714-.417c.287-.156.585-.3.9-.442s.624-.264.936-.377a6.13,6.13,0,0,1,.858-.247l.312,3.536Q276.156,25.413,275.193,25.854Z" style="fill:#184ae8"/><path d="M286.708,34.46h-4.783L277.946,21.8h3.8l2.574,8.971,2.575-8.971h3.8Z" style="fill:#184ae8"/><path d="M295.435,29.468v.339a1.8,1.8,0,0,0,.572,1.494,3.029,3.029,0,0,0,1.871.455q.468,0,1.015-.052t1.091-.142c.365-.061.715-.126,1.053-.2a7.722,7.722,0,0,0,.9-.234l.545,2.782a15.092,15.092,0,0,1-2.209.56,14.8,14.8,0,0,1-2.705.246,6.136,6.136,0,0,1-4.446-1.4,5.01,5.01,0,0,1-1.43-3.744V26.608a6.768,6.768,0,0,1,.274-1.937,4.052,4.052,0,0,1,.923-1.625,4.4,4.4,0,0,1,1.728-1.105,7.772,7.772,0,0,1,2.692-.4,6.96,6.96,0,0,1,2.626.429,3.994,3.994,0,0,1,1.625,1.157,4.275,4.275,0,0,1,.818,1.677,8.29,8.29,0,0,1,.234,1.989v2.678Zm3.639-3.535a1.508,1.508,0,0,0-1.767-1.613,1.911,1.911,0,0,0-1.47.455,1.68,1.68,0,0,0-.4,1.158v.883h3.639Z" style="fill:#184ae8"/><path d="M310.354,25.854a8.911,8.911,0,0,0-1.561.884V34.46H305.05V21.8h3.119l.261,1.223q.285-.183.715-.417t.9-.442c.313-.139.624-.264.937-.377a6.081,6.081,0,0,1,.857-.247l.312,3.536Q311.316,25.413,310.354,25.854Z" style="fill:#184ae8"/></svg>